<mxfile host="app.diagrams.net" modified="2024-05-29T03:14:30.252Z" agent="Mozilla/5.0 (Macintosh; Intel Mac OS X 10_15_7) AppleWebKit/537.36 (KHTML, like Gecko) Chrome/124.0.0.0 Safari/537.36" version="24.4.6" etag="TYUWY6w041W9oRBxi1NR" type="github">
  <diagram name="Page-1" id="vyL-CtyDRpOXDLv7MlMt">
    <mxGraphModel>
      <root>
        <mxCell id="0" />
        <mxCell id="1" parent="0" />
      </root>
    </mxGraphModel>
  </diagram>
</mxfile>
